<?xml version="1.0" standalone="no"?>
<!DOCTYPE svg PUBLIC "-//W3C//DTD SVG 20010904//EN"
 "http://www.w3.org/TR/2001/REC-SVG-20010904/DTD/svg10.dtd">
<svg version="1.0" xmlns="http://www.w3.org/2000/svg"
 width="1024.000000pt" height="1024.000000pt" viewBox="0 0 1024.000000 1024.000000"
 preserveAspectRatio="xMidYMid meet">
<metadata>
Created by potrace 1.16, written by Peter Selinger 2001-2019
</metadata>
<g transform="translate(0.000000,1024.000000) scale(0.100000,-0.100000)"
fill="#000000" stroke="none">
<path d="M2073 10227 c-6 -7 -57 -52 -113 -102 -104 -93 -239 -242 -279 -307
-12 -21 -28 -41 -35 -45 -15 -10 -107 -138 -127 -178 -9 -16 -50 -95 -91 -175
-42 -80 -79 -157 -82 -172 -4 -19 -15 -30 -34 -34 -71 -17 -239 -71 -257 -84
-5 -4 -23 -10 -40 -14 -32 -8 -207 -103 -265 -145 -142 -102 -190 -210 -140
-318 31 -70 72 -123 180 -230 l102 -103 -18 -27 c-32 -49 -54 -93 -75 -151
-11 -31 -25 -66 -31 -76 -16 -30 -43 -127 -88 -321 -14 -59 -32 -195 -33 -238
0 -21 -4 -40 -8 -43 -5 -3 -9 -26 -9 -53 0 -45 -2 -49 -52 -86 -190 -145 -408
-372 -524 -547 l-54 -81 0 -1089 0 -1089 30 -59 c16 -32 34 -61 39 -64 5 -4
12 -20 16 -36 4 -17 10 -30 15 -30 5 0 19 -17 31 -37 55 -90 156 -226 212
-285 15 -16 27 -34 27 -39 0 -5 -14 -40 -31 -77 -17 -37 -41 -89 -54 -117 -12
-27 -38 -95 -58 -150 -34 -98 -48 -144 -82 -275 -10 -36 -22 -77 -27 -92 -5
-15 -14 -62 -18 -105 -4 -43 -13 -96 -19 -118 -6 -22 -11 -122 -11 -223 0
-156 4 -201 25 -310 48 -240 128 -441 228 -572 66 -86 199 -214 258 -247 85
-47 179 -82 244 -91 203 -30 462 51 588 183 86 90 106 115 143 175 23 36 59
106 81 155 46 100 45 100 143 77 304 -71 374 -79 708 -86 156 -3 288 -8 293
-11 5 -4 9 -181 9 -431 0 -357 2 -424 14 -424 12 0 15 -47 19 -273 3 -149 8
-285 11 -302 3 -16 8 -61 11 -100 3 -38 7 -88 10 -110 3 -22 10 -94 16 -160
15 -163 15 -162 24 -227 l7 -58 1050 0 c933 0 1057 2 1112 16 33 9 66 17 71
18 6 1 15 4 20 8 6 3 28 9 50 13 234 40 375 80 422 121 44 37 123 160 164 255
18 41 36 79 41 85 9 12 145 25 323 30 112 3 242 16 275 28 8 3 47 8 85 12 39
3 81 7 95 9 193 27 168 22 380 69 63 14 146 32 185 41 38 8 113 29 165 46 52
17 106 33 120 35 14 3 29 9 35 15 5 5 18 9 28 9 10 0 33 6 50 14 18 8 50 20
72 26 22 7 45 16 50 20 6 4 39 17 75 30 36 13 74 29 85 37 11 7 25 13 32 13
28 0 427 193 466 226 16 13 33 24 40 24 6 0 49 26 96 57 143 96 230 197 246
285 6 31 4 39 -14 50 -12 7 -21 19 -21 26 0 33 44 138 73 174 31 38 32 44 32
127 -1 68 -7 106 -33 186 -33 104 -104 444 -105 504 0 41 22 62 96 89 92 35
98 34 120 -23 11 -27 34 -88 52 -135 42 -107 92 -252 140 -400 42 -131 62
-174 115 -245 62 -84 181 -179 270 -216 51 -22 69 -23 250 -23 218 0 324 17
455 71 l70 30 3 1693 c2 1570 1 1697 -15 1738 -21 57 -249 511 -266 531 -7 9
-22 35 -32 59 -10 23 -24 47 -32 54 -8 6 -30 44 -50 84 -19 41 -42 79 -49 85
-8 6 -14 15 -14 20 0 5 -19 40 -41 77 -41 66 -55 89 -99 167 -33 56 -142 219
-195 290 -25 33 -65 89 -89 125 -77 115 -417 537 -467 580 -3 3 -45 50 -94
105 -91 105 -135 144 -213 193 -67 42 -101 47 -154 23 -25 -11 -67 -29 -94
-40 -27 -10 -110 -50 -184 -88 -126 -65 -266 -121 -258 -105 2 4 31 63 66 131
62 122 112 242 147 351 10 30 20 60 24 65 3 6 6 15 7 20 1 6 11 46 22 90 61
250 71 323 71 545 0 220 -24 396 -78 580 -30 103 -127 313 -189 410 -20 30
-47 73 -61 95 -36 56 -270 286 -362 356 -68 51 -259 169 -275 169 -3 0 -40 17
-82 38 l-77 37 -1055 3 c-763 2 -1066 0 -1095 -8 -52 -15 -153 -57 -287 -119
-37 -17 -72 -31 -79 -31 -6 0 -44 -15 -83 -34 -39 -19 -120 -57 -181 -86 -144
-67 -288 -140 -299 -151 -6 -5 -18 -9 -28 -9 -10 0 -18 -4 -18 -10 0 -5 -5
-10 -11 -10 -19 0 -212 -99 -232 -119 -6 -6 -20 -11 -32 -11 -12 0 -36 -16
-55 -35 -19 -19 -30 -35 -24 -35 5 0 2 -4 -6 -10 -9 -6 -17 -5 -22 3 -5 8 -8
6 -8 -6 0 -10 -4 -16 -9 -13 -5 3 -12 -1 -15 -10 -3 -8 -10 -12 -16 -9 -9 6
-14 -7 -11 -27 0 -4 -6 -5 -13 -2 -14 5 -40 -28 -30 -39 3 -2 -8 -11 -25 -18
-24 -11 -28 -16 -18 -27 9 -12 8 -14 -8 -10 -11 2 -26 -3 -33 -12 -8 -8 -11
-9 -7 -2 3 6 2 12 -3 12 -17 0 -22 -13 -9 -28 6 -9 7 -13 2 -10 -6 4 -22 -2
-35 -13 -21 -16 -22 -19 -7 -19 10 0 15 -5 12 -11 -4 -5 -12 -8 -18 -6 -6 2
-22 -9 -34 -24 -16 -18 -30 -25 -43 -22 -16 4 -19 2 -14 -11 4 -9 1 -16 -6
-16 -7 0 -19 -8 -26 -17 -11 -14 -13 -15 -14 -3 0 10 -5 7 -16 -8 -8 -12 -19
-20 -24 -17 -5 3 -16 -5 -24 -17 -9 -12 -16 -19 -16 -14 0 5 -8 2 -18 -7 -10
-10 -22 -14 -25 -10 -4 3 -7 1 -7 -6 0 -7 -5 -9 -11 -6 -6 4 -13 -2 -16 -13
-3 -13 -17 -23 -35 -27 -19 -5 -28 -12 -24 -20 3 -9 0 -12 -10 -8 -7 3 -14 1
-14 -4 0 -6 -11 -15 -25 -21 -28 -13 -33 -32 -8 -32 22 0 8 -13 -16 -15 -13
-1 -17 3 -13 13 3 10 1 13 -7 8 -6 -4 -9 -16 -6 -25 4 -14 -8 -23 -62 -45 -38
-16 -99 -43 -138 -61 -155 -72 -299 -135 -405 -176 -88 -35 -138 -56 -162 -69
-10 -6 -22 -10 -27 -10 -5 0 -25 -7 -45 -15 -20 -8 -38 -15 -41 -15 -3 0 -18
-6 -34 -15 -51 -26 -514 -176 -562 -182 -52 -6 -50 -8 -224 158 -49 47 -110
105 -134 127 -40 36 -43 42 -25 47 10 4 30 11 44 16 14 4 63 18 110 29 47 12
105 30 130 40 25 10 250 86 500 169 443 146 624 208 685 236 17 7 75 31 130
53 55 22 141 59 190 82 50 23 112 51 139 62 56 22 291 138 412 204 45 24 87
44 94 44 7 0 122 54 255 120 133 66 245 120 250 120 5 0 16 6 24 14 9 8 90 51
181 96 91 45 192 95 225 112 33 17 71 34 85 39 14 4 52 19 85 33 l60 26 -155
0 c-85 0 -171 -5 -190 -10 -23 -7 -36 -7 -38 0 -2 5 -17 10 -33 10 -21 0 -43
-13 -80 -49 -48 -46 -144 -99 -412 -226 l-79 -38 -87 22 c-47 11 -115 24 -151
27 -154 14 -417 126 -510 215 l-51 49 -382 0 c-286 -1 -385 -4 -394 -13z m641
-94 c20 -21 36 -40 36 -44 0 -4 -39 -42 -87 -85 -49 -43 -94 -85 -101 -93 -7
-9 -50 -55 -95 -103 -95 -100 -123 -134 -175 -214 -88 -135 -102 -159 -149
-251 -26 -52 -57 -101 -68 -108 -18 -12 -92 -34 -278 -83 -32 -8 -60 -12 -64
-9 -12 13 156 301 268 457 57 80 240 271 339 354 72 60 138 107 280 199 38 24
54 21 94 -20z m213 -135 c71 -53 263 -128 388 -153 118 -23 118 -22 35 -65
-219 -113 -551 -274 -670 -325 -74 -32 -146 -64 -160 -71 -14 -7 -63 -25 -110
-39 -47 -14 -91 -29 -99 -32 -24 -10 68 152 174 303 28 41 134 159 195 219 75
73 203 185 211 185 3 0 19 -10 36 -22z m3433 12 c150 -18 273 -41 345 -65 38
-12 101 -32 138 -44 120 -37 388 -168 462 -226 196 -152 360 -366 434 -565 44
-122 89 -319 105 -465 2 -22 8 -59 11 -82 5 -25 3 -48 -2 -55 -6 -7 -11 -35
-12 -61 -6 -208 -119 -563 -251 -793 -28 -48 -50 -88 -50 -90 0 -5 -139 -209
-157 -230 -23 -27 -44 -38 -124 -64 -84 -27 -373 -108 -376 -106 -1 1 -10 67
-18 147 -17 153 -61 331 -93 377 -28 39 -62 109 -62 126 0 8 20 44 45 80 25
37 45 68 45 71 0 2 17 31 38 64 71 109 160 305 201 438 53 179 60 207 66 303
l6 95 -30 36 c-17 20 -48 45 -68 56 -21 11 -67 35 -103 55 -36 19 -128 60
-205 91 -203 81 -192 74 -206 132 -16 68 -83 217 -160 355 -38 69 -138 216
-156 231 -7 6 -13 15 -13 20 0 5 -12 26 -27 47 -16 22 -43 60 -61 86 l-33 46
113 0 c63 0 152 -5 198 -10z m-440 -84 c0 -5 31 -45 68 -90 86 -102 182 -244
223 -327 17 -35 42 -84 56 -109 13 -25 38 -83 53 -130 16 -47 36 -98 44 -115
18 -34 21 -75 6 -75 -5 0 -19 19 -31 43 -12 23 -36 58 -53 78 -17 20 -53 64
-81 98 -43 53 -124 135 -200 200 -82 71 -285 186 -347 197 -18 4 -44 14 -58
22 -20 13 -54 16 -165 17 -155 0 -200 -11 -339 -83 -62 -32 -194 -149 -246
-217 -47 -62 -112 -170 -135 -226 -15 -35 -33 -73 -40 -85 -12 -18 -42 -131
-77 -289 -17 -76 -16 -526 1 -600 6 -27 20 -99 32 -160 64 -351 254 -746 490
-1018 130 -150 227 -223 439 -328 113 -55 274 -81 371 -60 156 35 304 111 419
214 129 117 259 341 299 517 5 25 13 59 17 75 6 29 7 28 22 -25 13 -45 16
-108 16 -345 1 -281 0 -296 -31 -475 -31 -178 -81 -352 -168 -585 -14 -38 -31
-83 -37 -100 -6 -16 -19 -42 -29 -56 -10 -14 -27 -48 -37 -75 -34 -85 -113
-234 -122 -229 -4 3 -7 -3 -6 -13 1 -11 -5 -16 -18 -14 -10 2 -25 0 -35 -4 -9
-3 -38 -7 -64 -7 -27 0 -45 -3 -40 -6 17 -13 12 -31 -10 -31 -18 0 -19 2 -7
10 10 7 11 10 3 11 -7 1 -22 3 -33 4 -11 1 -25 3 -31 4 -5 0 -8 5 -4 10 6 11
-35 9 -53 -3 -7 -4 -12 -3 -12 3 0 5 5 11 12 13 8 3 9 11 3 24 -12 27 -14 54
-3 60 4 3 6 9 4 13 -3 4 12 37 34 72 74 122 125 224 162 329 48 136 49 150 4
150 -39 0 -81 -14 -100 -33 -49 -47 -184 -149 -226 -169 -14 -7 -32 -19 -40
-27 -15 -15 -156 -82 -225 -107 -44 -17 -318 -86 -405 -103 -78 -15 -354 -38
-425 -35 -269 10 -364 17 -455 30 -279 40 -553 106 -650 158 -14 7 -41 16 -60
20 -53 9 -200 67 -315 122 -38 19 -75 34 -82 34 -6 0 -24 10 -40 23 -15 12
-68 47 -118 77 -92 55 -289 194 -336 237 -20 18 -40 25 -75 26 l-49 2 -3 -52
c-3 -48 -1 -54 22 -64 14 -7 23 -15 21 -20 -17 -27 40 -79 165 -154 76 -46
140 -99 140 -117 0 -6 -7 -3 -15 8 -15 17 -15 12 -9 -66 3 -47 12 -106 18
-131 10 -37 10 -46 -1 -46 -7 0 -13 4 -13 8 0 4 -7 10 -16 13 -12 5 -15 2 -10
-9 3 -9 2 -13 -4 -10 -6 3 -10 13 -10 21 0 8 -4 12 -10 9 -5 -3 -16 -3 -22 2
-7 4 -26 8 -43 9 -16 0 -30 5 -30 11 0 6 -3 15 -7 19 -5 4 -8 3 -8 -3 0 -6
-10 -13 -22 -16 -22 -6 -22 -6 -4 8 11 8 17 15 13 15 -16 0 -23 2 -34 12 -7 5
-17 7 -23 3 -5 -3 -10 -1 -10 4 0 15 -47 14 -53 -1 -3 -8 -6 -6 -6 5 -1 13 -7
16 -27 13 -20 -4 -24 -2 -20 10 3 8 2 12 -3 9 -5 -3 -12 -1 -16 5 -3 5 -12 10
-18 10 -7 0 -6 -4 3 -10 13 -8 13 -10 -2 -10 -9 0 -25 -3 -35 -6 -10 -3 -14
-2 -8 3 20 16 15 33 -9 33 -13 0 -27 -6 -29 -12 -4 -8 -6 -7 -6 3 -1 9 -9 23
-18 30 -11 10 -14 10 -9 2 6 -12 2 -14 -21 -12 -5 0 -7 6 -6 13 3 13 -46 14
-69 0 -10 -6 -10 -4 1 9 8 10 9 17 3 17 -6 0 -14 -4 -17 -10 -3 -5 -12 -10
-18 -10 -9 0 -9 2 0 8 9 6 7 11 -7 20 -17 10 -20 10 -20 -4 0 -8 -5 -12 -10
-9 -6 4 -7 11 -4 17 4 7 2 8 -5 4 -6 -4 -14 -1 -17 8 -3 8 -12 17 -20 20 -9 3
-12 1 -9 -4 3 -6 1 -10 -4 -10 -6 0 -11 5 -11 12 0 6 -3 8 -7 5 -3 -4 -12 -2
-20 4 -7 6 -13 8 -13 4 0 -4 -7 -2 -15 5 -8 6 -24 13 -37 15 -73 12 -160 44
-152 56 3 5 -2 6 -10 3 -11 -4 -16 0 -16 14 0 12 -4 23 -9 26 -4 3 -7 -6 -5
-19 2 -27 -14 -33 -35 -12 -11 10 -12 9 -6 -2 5 -9 4 -12 -3 -7 -18 11 -14 26
6 26 14 0 15 2 2 10 -10 6 -16 6 -18 0 -2 -6 -18 -10 -35 -10 -29 0 -30 1 -11
15 18 15 18 15 0 8 -14 -5 -17 -3 -11 7 5 9 4 11 -3 6 -7 -4 -12 -14 -12 -22
0 -8 -5 -12 -10 -9 -6 4 -8 11 -5 16 4 5 1 9 -4 9 -6 0 -11 -4 -11 -10 0 -5
-4 -10 -9 -10 -5 0 -7 10 -4 23 3 12 2 19 -2 15 -4 -4 -15 1 -24 10 -9 10 -12
12 -7 5 17 -26 -17 -13 -46 18 -28 29 -29 29 -24 7 3 -12 3 -17 0 -10 -3 6
-10 10 -14 7 -5 -3 -12 0 -16 6 -4 8 -3 9 4 5 7 -4 12 -2 12 3 0 14 -17 14
-25 1 -4 -6 -12 -4 -21 5 -17 16 -59 21 -49 5 3 -6 -1 -7 -10 -3 -13 4 -14 8
-4 14 10 6 9 10 -5 15 -10 4 -27 7 -39 8 -11 1 -22 8 -24 16 -4 13 -3 13 6 0
9 -12 11 -9 11 13 0 26 -1 27 -16 13 -20 -21 -13 -22 -85 15 -19 9 -21 8 -16
-5 4 -9 2 -16 -2 -16 -14 0 -19 23 -9 43 6 12 5 17 -4 15 -7 -2 -16 -10 -20
-18 -5 -10 -7 -8 -7 9 -1 13 -4 21 -8 18 -3 -4 -15 0 -24 9 -17 16 -19 15 -28
-10 -6 -14 -15 -26 -21 -26 -8 0 -7 6 0 20 9 17 8 21 -7 26 -55 18 -70 27 -71
42 -1 22 27 140 39 161 4 9 24 88 44 176 59 265 85 367 100 394 8 14 28 75 45
134 57 204 229 602 374 867 14 25 33 66 44 91 l19 45 179 68 c99 37 208 80
244 96 110 48 395 160 407 160 7 0 -9 -35 -35 -77 -59 -97 -97 -172 -121 -243
-10 -30 -28 -81 -40 -112 -28 -77 -57 -433 -40 -503 4 -16 10 -66 13 -110 4
-44 10 -100 15 -125 12 -65 91 -330 108 -364 9 -16 23 -52 33 -80 22 -64 73
-173 119 -251 43 -74 112 -185 128 -205 7 -8 32 -42 57 -75 61 -82 248 -272
320 -326 135 -101 165 -120 254 -164 133 -65 263 -94 425 -95 112 0 267 36
338 79 19 12 48 28 66 36 17 8 76 59 130 113 80 80 106 114 140 183 73 145 94
209 120 349 24 138 24 448 -1 595 -32 191 -96 423 -132 480 -7 11 -22 44 -33
73 -30 76 -147 288 -192 349 -22 29 -43 63 -48 75 -12 30 -128 160 -246 275
-144 140 -393 294 -521 323 -27 6 -70 18 -96 26 -25 9 -86 21 -135 28 l-88 11
195 98 c107 53 245 123 307 154 61 32 140 71 175 87 34 17 149 71 253 121 272
131 346 165 357 165 10 0 141 54 172 71 10 6 55 22 100 35 44 14 88 29 98 34
9 5 54 20 100 34 45 14 157 50 248 81 91 30 173 55 183 55 10 0 33 7 53 15 19
8 32 10 29 6 -3 -5 4 -7 15 -4 11 3 18 9 15 12 -2 4 1 8 8 8 7 0 39 8 72 18
33 10 116 28 185 40 l125 23 32 -37 c18 -20 33 -40 33 -45z m-374 -351 c34 -8
92 -29 130 -47 100 -47 296 -188 374 -269 42 -43 143 -177 177 -235 18 -30 42
-65 54 -77 42 -45 188 -367 205 -451 2 -11 10 -40 19 -65 16 -51 50 -216 62
-307 4 -33 8 -135 7 -229 -1 -145 -5 -189 -28 -295 -29 -134 -49 -204 -73
-260 -35 -82 -88 -177 -114 -208 -16 -18 -29 -36 -29 -40 0 -4 -24 -32 -53
-62 -269 -281 -591 -278 -930 9 -220 187 -444 568 -532 906 -67 259 -70 282
-80 530 -10 232 13 392 87 600 86 243 249 422 458 500 47 18 191 18 266 0z
m-2250 -790 c144 -25 228 -58 369 -144 63 -38 92 -59 188 -134 16 -12 57 -51
90 -87 34 -36 77 -80 95 -99 18 -18 38 -43 44 -54 6 -11 30 -45 54 -74 24 -30
44 -58 44 -63 0 -4 10 -21 23 -37 23 -28 97 -166 156 -293 28 -59 43 -99 101
-266 10 -28 31 -114 46 -190 23 -116 28 -166 28 -304 2 -294 -42 -471 -158
-644 -25 -38 -46 -72 -46 -75 0 -11 -63 -63 -129 -108 -59 -39 -123 -67 -179
-78 -12 -2 -27 -7 -32 -10 -5 -3 -29 -8 -52 -11 -24 -2 -48 -6 -53 -8 -11 -4
-146 9 -180 17 -122 30 -177 49 -235 83 -14 8 -43 23 -65 33 -22 11 -64 40
-93 65 -30 25 -57 46 -60 46 -23 0 -245 238 -294 313 -15 23 -35 53 -46 67
-10 14 -31 48 -46 75 -16 28 -35 57 -42 65 -28 32 -152 289 -172 355 -22 71
-40 142 -43 160 0 6 -5 15 -9 20 -11 14 -35 133 -51 251 -15 120 -7 434 15
529 17 73 75 225 110 285 33 56 116 152 171 196 92 74 228 128 336 133 15 0
66 -6 115 -14z m-1702 -497 c-3 -13 -15 -34 -24 -48 -10 -14 -46 -83 -80 -155
-34 -71 -70 -146 -80 -165 -10 -19 -32 -69 -49 -110 -16 -41 -39 -93 -50 -115
-12 -21 -21 -47 -21 -55 0 -9 -3 -20 -7 -24 -4 -3 -12 -21 -18 -39 -51 -141
-151 -453 -160 -494 -7 -35 -12 -38 -34 -24 -24 15 -6 339 29 547 42 242 48
270 66 322 9 26 24 80 35 120 10 40 30 94 45 120 29 52 6 41 269 122 81 25 88
25 79 -2z m6892 -1175 c36 -27 200 -217 242 -279 12 -19 26 -34 31 -34 5 0 20
-17 32 -37 12 -21 36 -54 53 -74 50 -58 160 -203 205 -269 13 -19 27 -37 30
-40 21 -16 182 -271 176 -280 -3 -6 -3 -10 2 -9 19 3 23 -2 13 -20 -7 -14 -7
-22 2 -27 6 -4 8 -3 4 4 -3 6 -2 13 3 16 5 3 11 -5 13 -18 4 -19 1 -22 -15
-18 -14 4 -18 1 -13 -7 5 -8 0 -14 -13 -18 -17 -4 -19 -9 -10 -25 7 -12 7 -18
1 -14 -5 3 -15 0 -21 -8 -9 -11 -9 -14 1 -12 7 0 14 -3 15 -8 1 -5 7 -13 15
-18 10 -8 10 -9 -2 -5 -8 2 -14 10 -12 16 1 7 -1 10 -6 7 -5 -3 -8 -21 -7 -40
0 -19 -2 -33 -6 -30 -4 2 -10 -2 -12 -8 -3 -7 -4 1 -2 19 3 26 0 31 -13 26
-10 -4 -12 -8 -4 -11 8 -2 7 -9 -4 -20 -11 -11 -13 -17 -5 -20 6 -2 11 -8 11
-13 0 -4 -8 -5 -17 -2 -16 6 -17 5 -3 -12 13 -17 13 -18 -1 -13 -13 5 -15 1
-12 -20 3 -17 1 -23 -4 -15 -7 9 -14 7 -27 -9 -16 -18 -16 -20 -2 -15 9 4 16
2 16 -3 0 -6 -7 -10 -16 -10 -10 0 -14 -6 -10 -15 3 -9 0 -15 -10 -15 -8 0
-12 -5 -9 -11 4 -6 14 -8 22 -5 8 3 11 1 8 -4 -8 -14 -37 -9 -50 8 -9 11 -11
8 -11 -12 0 -19 4 -25 14 -21 12 4 12 2 4 -8 -7 -8 -9 -17 -5 -21 4 -4 1 -4
-8 -1 -10 4 -15 -1 -16 -16 -1 -12 -7 -27 -14 -33 -9 -8 -10 -8 -6 0 4 7 -1
15 -10 18 -10 4 -14 4 -10 0 3 -4 -3 -20 -14 -35 -11 -16 -16 -29 -11 -29 5 0
12 -13 14 -30 3 -16 2 -28 0 -25 -3 2 -13 0 -23 -5 -13 -8 -21 -6 -29 7 -10
16 -11 15 -7 -4 3 -13 1 -25 -4 -28 -4 -3 -6 -12 -2 -21 3 -8 2 -14 -3 -13 -5
1 -16 1 -24 -1 -11 -1 -9 -4 5 -10 19 -8 19 -9 -2 -9 -16 -1 -21 -6 -17 -16 5
-11 2 -14 -12 -9 -16 6 -17 5 -6 -7 11 -12 15 -11 28 5 11 16 14 17 14 4 0
-15 -26 -33 -43 -30 -4 1 -6 -1 -6 -5 1 -5 1 -17 0 -28 -1 -15 -3 -17 -10 -6
-7 12 -12 11 -30 -1 -11 -8 -18 -18 -13 -23 4 -4 -1 -6 -10 -2 -15 5 -34 -16
-30 -35 1 -5 -7 -8 -18 -8 -11 0 -20 5 -20 11 0 6 -7 3 -16 -6 -13 -12 -14
-19 -5 -28 13 -13 14 -27 2 -27 -5 0 -18 14 -29 31 -31 49 -201 217 -262 259
-69 47 -113 59 -174 50 -88 -13 -81 37 -96 -685 -1 -38 3 -90 9 -115 5 -25 13
-117 16 -205 8 -203 9 -208 17 -221 5 -7 1 -14 -8 -18 -8 -3 -13 -2 -10 2 8
13 -24 53 -36 46 -7 -5 -5 -12 7 -21 12 -8 14 -13 5 -13 -10 0 -9 -5 4 -19 13
-14 14 -21 5 -27 -7 -4 -10 -3 -6 3 4 6 0 13 -8 17 -9 3 -29 -8 -50 -29 -36
-36 -37 -48 -2 -17 11 9 17 12 14 5 -4 -6 -4 -13 0 -16 5 -2 3 -2 -4 -1 -19 5
-26 -15 -9 -22 25 -9 8 -25 -20 -18 -15 4 -24 2 -24 -6 0 -6 4 -9 9 -6 5 3 11
0 14 -8 4 -9 -5 -21 -19 -31 -14 -9 -22 -21 -18 -27 5 -7 2 -9 -9 -5 -9 3 -16
3 -16 -1 3 -19 -3 -22 -21 -12 -23 12 -27 -2 -6 -19 10 -8 16 -9 21 -1 3 5 12
10 18 10 7 -1 2 -9 -11 -20 -13 -11 -30 -16 -39 -13 -12 5 -14 3 -7 -8 12 -20
15 -49 5 -49 -5 0 -11 6 -14 13 -3 6 -5 -4 -5 -23 1 -19 6 -42 12 -50 10 -13
9 -13 -9 0 -11 8 -23 19 -27 24 -11 16 -37 15 -31 -1 4 -11 8 -12 13 -2 6 8 9
6 12 -7 2 -10 -6 -30 -19 -43 -12 -14 -19 -29 -16 -35 4 -6 -4 -2 -17 9 l-23
20 13 -24 c11 -22 11 -23 -9 -18 -12 3 -19 2 -16 -2 2 -5 -2 -17 -10 -27 -8
-10 -15 -27 -15 -36 0 -10 -4 -18 -9 -18 -5 0 -7 10 -4 23 3 12 3 19 0 16 -4
-3 -10 -23 -15 -45 -5 -22 -14 -38 -21 -36 -7 1 -9 -2 -5 -9 5 -9 2 -10 -11
-5 -15 5 -16 4 -5 -9 7 -8 9 -16 4 -17 -5 0 -13 -2 -19 -3 -5 -2 -14 -3 -19
-4 -5 0 -3 -8 4 -16 9 -11 9 -15 1 -15 -7 0 -9 -5 -6 -11 4 -6 14 -8 24 -4 12
5 13 3 5 -5 -9 -9 -17 -8 -32 1 -12 7 -25 9 -29 5 -4 -5 -2 -11 5 -13 14 -6
16 -29 2 -38 -5 -3 -7 0 -4 9 4 10 0 14 -15 13 -14 -1 -17 -5 -11 -11 13 -13
13 -46 -1 -46 -5 0 -7 4 -4 10 4 6 -1 7 -11 3 -10 -4 -13 -8 -7 -10 7 -3 9
-11 6 -19 -3 -9 -13 -12 -23 -9 -10 3 -23 -2 -31 -12 -9 -11 -10 -14 -1 -9 7
4 12 1 12 -8 0 -19 -21 -21 -39 -3 -10 10 -11 9 -6 -5 4 -10 15 -19 24 -19 12
-1 11 -3 -3 -6 -11 -3 -28 -15 -37 -27 -11 -12 -18 -16 -19 -8 0 10 -7 9 -30
-3 -21 -11 -27 -20 -23 -32 4 -10 2 -14 -5 -9 -6 3 -14 1 -18 -5 -4 -8 -3 -9
4 -5 7 4 12 3 12 -2 0 -11 -53 -57 -62 -54 -5 1 -8 -4 -8 -12 0 -8 -7 -22 -16
-31 -9 -8 -14 -24 -11 -34 3 -14 0 -17 -20 -13 -23 4 -24 3 -14 -16 9 -18 8
-23 -9 -32 -11 -6 -18 -15 -15 -21 4 -5 4 -9 1 -9 -14 0 -14 20 0 34 8 9 11
16 5 16 -17 0 -52 -40 -46 -50 3 -6 -5 -15 -19 -22 -14 -6 -26 -15 -26 -20 0
-5 4 -7 9 -3 5 3 12 1 15 -4 3 -5 -1 -11 -9 -15 -8 -3 -15 -12 -15 -21 0 -11
-12 -15 -42 -16 -24 -1 -46 -1 -50 0 -3 0 -5 -11 -3 -24 1 -14 -2 -26 -6 -26
-5 -1 -15 -2 -21 -3 -7 -1 -19 3 -27 8 -11 8 -13 8 -8 -1 4 -6 1 -14 -5 -16
-8 -4 -7 -6 3 -6 17 -1 36 -31 20 -31 -5 0 -11 6 -14 13 -6 16 -38 -23 -32
-41 3 -8 -5 -7 -28 4 l-32 17 20 -23 20 -23 -27 5 c-16 3 -28 1 -28 -3 0 -9
15 -13 33 -10 5 1 6 -3 2 -9 -3 -6 -11 -8 -16 -5 -5 4 -9 -1 -9 -9 0 -9 -4
-16 -9 -16 -5 0 -7 9 -4 20 8 32 -11 23 -24 -10 -6 -17 -17 -30 -25 -30 -11 0
-11 2 1 9 9 6 10 11 2 15 -6 4 -11 2 -11 -4 0 -7 -6 -10 -13 -7 -8 3 -20 1
-28 -5 -11 -8 -11 -9 3 -4 10 3 20 1 23 -4 4 -6 2 -10 -3 -10 -6 0 -9 -7 -8
-16 0 -9 -5 -18 -12 -20 -7 -1 -8 0 -2 3 15 7 12 20 -6 27 -8 3 -12 2 -9 -3 3
-5 1 -12 -5 -16 -5 -3 -10 1 -10 9 0 18 -8 20 -30 6 -12 -8 -13 -13 -3 -29 13
-20 7 -35 -10 -24 -13 8 -56 11 -55 3 2 -23 -4 -37 -16 -37 -8 0 -12 6 -9 14
3 8 2 13 -3 11 -17 -6 -16 13 5 80 11 37 27 94 35 127 8 33 24 92 34 130 48
171 96 358 117 450 13 55 28 112 34 126 5 15 28 112 50 215 23 104 50 230 60
279 11 50 23 110 26 135 4 25 18 90 31 145 13 55 30 141 38 190 24 146 47 269
52 276 2 4 11 58 19 120 9 63 22 146 30 184 30 142 108 731 135 1020 5 55 14
154 20 220 11 108 8 250 -6 345 -5 33 -3 36 28 47 18 6 76 17 128 23 112 13
271 44 355 70 199 60 246 76 305 101 71 32 174 85 205 106 28 19 42 16 81 -14z
m-7786 -229 c0 -4 -24 -57 -54 -118 -29 -61 -59 -129 -66 -151 -7 -22 -16 -44
-20 -50 -14 -19 -50 -150 -74 -270 -32 -159 -39 -256 -27 -395 23 -267 95
-461 251 -669 30 -41 61 -82 68 -91 24 -33 212 -223 236 -239 13 -9 49 -34 80
-55 31 -22 81 -49 112 -62 l54 -22 7 27 c8 37 83 146 140 206 167 175 633 488
671 451 7 -8 -25 -116 -56 -186 -42 -96 -55 -123 -103 -210 -89 -162 -98 -177
-128 -209 -17 -18 -31 -38 -31 -43 0 -5 -17 -29 -37 -53 -21 -24 -48 -62 -61
-84 -27 -48 -20 -51 60 -22 69 25 160 47 228 56 43 5 77 1 155 -20 148 -39
215 -73 288 -148 140 -143 186 -316 121 -453 -78 -163 -294 -296 -539 -333
-246 -37 -477 -13 -688 69 -193 77 -356 172 -480 281 -176 155 -355 393 -475
634 -14 28 -33 61 -42 75 -19 28 -110 236 -110 252 0 6 -18 61 -40 122 -93
260 -95 670 -5 891 7 17 22 57 33 90 28 83 90 214 118 251 13 17 24 34 24 38
0 9 99 154 146 216 51 65 216 230 231 230 7 0 13 -3 13 -6z m2680 -1022 c425
-160 725 -233 1073 -262 281 -22 707 2 872 49 17 5 64 17 105 26 83 19 319
106 419 154 36 17 67 28 69 26 3 -2 -8 -21 -24 -41 -16 -20 -34 -46 -41 -58
-30 -55 -131 -135 -234 -185 -87 -43 -207 -90 -269 -106 -8 -2 -15 -4 -15 -5
0 -6 -177 -39 -314 -60 -126 -19 -175 -21 -391 -17 -136 2 -252 7 -258 11 -6
3 -30 8 -54 11 -185 21 -246 30 -338 52 -58 13 -132 33 -165 44 -33 11 -67 22
-75 24 -25 6 -142 46 -180 61 -19 7 -78 29 -130 48 -52 19 -115 46 -140 60
-25 14 -69 38 -98 53 -38 20 -54 35 -58 53 -3 14 -9 35 -14 47 -5 12 -12 49
-16 82 l-7 61 89 -44 c49 -25 136 -62 194 -84z m2154 -1074 c14 0 26 -6 26
-12 0 -6 5 -4 10 4 7 11 10 12 10 2 0 -10 4 -9 16 2 8 9 21 13 27 9 8 -5 7 -8
-2 -11 -8 -3 -7 -8 6 -18 15 -12 15 -13 2 -8 -10 3 -20 1 -24 -5 -3 -6 -1 -11
4 -11 18 0 12 -38 -6 -49 -10 -6 -13 -11 -7 -11 20 0 67 -47 55 -54 -6 -4 -9
-11 -6 -16 3 -5 0 -14 -7 -22 -21 -22 -19 -35 5 -35 41 -1 45 -3 52 -30 5 -21
8 -24 16 -12 5 9 9 9 9 2 0 -6 -5 -15 -10 -18 -6 -4 -8 -10 -5 -15 3 -5 1 -20
-5 -35 -12 -31 2 -57 26 -48 8 3 14 1 14 -4 0 -5 -6 -10 -12 -10 -7 0 -22 -4
-32 -9 -15 -5 -17 -4 -11 6 5 8 4 11 -3 6 -6 -4 -9 -13 -5 -22 4 -11 9 -12 19
-3 11 9 16 6 23 -12 5 -15 5 -26 -2 -30 -5 -4 -7 -14 -4 -24 4 -9 11 -14 16
-11 12 8 21 -18 11 -33 -4 -7 -6 -26 -4 -42 2 -18 0 -28 -6 -24 -15 9 -12 -5
5 -21 17 -17 21 -39 5 -29 -5 3 -10 -1 -10 -10 0 -10 5 -13 12 -9 7 5 8 3 3
-5 -11 -19 -12 -71 -2 -78 6 -3 7 -2 4 4 -3 5 1 10 9 10 11 0 10 -5 -6 -22
-23 -24 -25 -40 -8 -51 7 -4 8 -3 4 4 -4 7 -2 12 4 12 6 0 8 4 5 10 -3 6 1 7
9 4 19 -7 21 -25 4 -42 -7 -7 -14 -17 -14 -23 -1 -5 -3 -10 -4 -11 -1 -2 -3
-18 -4 -36 -1 -23 2 -31 11 -28 20 8 16 -21 -4 -34 -15 -9 -14 -10 6 -4 17 4
22 3 19 -7 -3 -8 -14 -13 -24 -11 -18 2 -18 2 0 -13 11 -8 16 -15 12 -15 -5 0
-3 -7 4 -15 11 -13 10 -14 -2 -10 -13 5 -15 -1 -13 -26 1 -20 -4 -38 -17 -51
-22 -22 -15 -46 8 -27 12 10 12 14 2 20 -9 6 -9 9 -1 9 16 0 26 -17 14 -25
-11 -6 -8 -66 4 -86 5 -7 4 -10 -1 -6 -6 3 -16 2 -24 -4 -12 -6 -12 -9 -2 -9
7 0 20 -7 28 -15 9 -8 11 -15 5 -15 -5 0 -13 5 -16 10 -10 16 -26 12 -23 -6 6
-32 -349 -131 -622 -172 -103 -16 -144 -29 -164 -54 -17 -22 -18 -40 -13 -338
3 -178 12 -383 21 -470 17 -161 68 -489 86 -550 12 -43 13 -43 -2 -34 -10 6
-10 4 0 -7 16 -18 15 -29 -3 -29 -8 0 -15 -5 -15 -11 0 -5 -5 -7 -11 -3 -8 4
-7 0 1 -15 6 -12 15 -19 21 -16 5 4 7 10 4 15 -3 4 2 10 10 14 8 3 14 0 12 -7
-3 -19 -36 -39 -49 -31 -8 5 -9 2 -4 -12 4 -10 4 -15 0 -12 -11 12 -46 -12
-40 -28 3 -7 2 -13 -2 -13 -22 4 -30 -3 -27 -21 2 -12 0 -18 -6 -15 -5 4 -7
10 -4 15 7 12 -12 23 -26 14 -8 -4 -7 -9 2 -15 12 -7 11 -9 -1 -10 -8 -1 -18
-1 -21 -1 -3 1 -5 -10 -3 -24 1 -13 -2 -22 -7 -18 -5 3 -9 -2 -9 -11 0 -15 -1
-15 -16 -1 -18 19 -21 19 -30 4 -4 -7 -3 -8 4 -4 7 4 12 2 12 -3 0 -6 -7 -11
-15 -11 -13 0 -21 -26 -16 -53 1 -5 -3 -6 -9 -2 -6 3 -8 11 -5 16 3 5 -1 6
-10 3 -8 -4 -20 -15 -26 -25 -5 -11 -16 -19 -24 -19 -8 0 -15 -7 -15 -16 0 -8
-5 -12 -10 -9 -6 4 -8 16 -4 27 4 14 2 18 -5 14 -6 -4 -11 -14 -11 -21 0 -9
-6 -12 -17 -9 -11 4 -14 3 -7 -3 16 -12 14 -42 -3 -36 -7 3 -17 -6 -23 -21 -9
-25 -40 -37 -40 -15 0 5 -5 7 -11 4 -7 -5 -4 -14 8 -28 12 -13 13 -17 3 -11
-33 19 -58 15 -64 -11 -4 -14 -10 -25 -15 -25 -5 0 -18 -8 -27 -17 -17 -17
-17 -17 -11 -1 3 10 1 20 -5 24 -6 4 -8 3 -5 -3 3 -5 -3 -16 -14 -23 -20 -15
-27 -36 -7 -24 7 5 8 3 3 -5 -4 -7 -15 -11 -25 -8 -19 5 -53 -26 -42 -39 4 -5
0 -3 -9 4 -14 10 -20 10 -33 -3 -19 -19 -21 -39 -3 -29 6 3 -1 -5 -17 -20 -27
-24 -30 -25 -42 -8 -12 16 -13 15 -14 -7 0 -21 -2 -22 -17 -10 -11 9 -14 10
-9 2 4 -7 2 -21 -3 -30 -10 -17 -10 -17 -11 0 0 18 -16 24 -22 7 -1 -5 -18
-11 -37 -13 -19 -1 -36 -7 -38 -14 -5 -13 29 -12 39 2 4 6 8 2 8 -8 0 -14 -5
-17 -21 -12 -12 4 -19 3 -16 -2 3 -5 -6 -10 -21 -11 -15 -1 -32 -9 -39 -18 -6
-9 -15 -14 -20 -11 -16 10 -53 -12 -47 -28 7 -18 8 -18 -34 -6 -31 9 -37 5
-34 -20 1 -4 -8 -5 -18 -2 -12 3 -20 0 -20 -6 0 -7 -5 -9 -10 -6 -5 3 -10 -1
-10 -9 0 -9 -5 -16 -11 -16 -5 0 -7 5 -4 10 3 6 2 10 -2 10 -13 0 -34 -40 -28
-50 6 -9 -16 -15 -39 -11 -4 1 -13 -2 -20 -7 -6 -4 -30 -8 -53 -7 -23 1 -40
-3 -36 -8 3 -5 -3 -8 -13 -7 -34 4 -43 0 -38 -14 3 -8 1 -17 -5 -21 -6 -3 -11
-2 -11 4 0 6 -7 7 -17 4 -11 -4 -14 -3 -9 5 4 7 2 12 -3 12 -6 0 -11 -10 -11
-22 0 -12 -3 -19 -6 -16 -3 4 -19 2 -35 -2 -27 -8 -28 -7 -18 13 l10 22 -19
-22 -20 -22 2 32 c1 18 -3 37 -10 44 -22 23 -36 595 -15 616 16 16 13 38 -8
61 -18 19 -19 42 -23 291 -1 149 1 408 6 576 9 287 8 308 -9 336 -21 36 -56
55 -88 49 -12 -3 -76 -7 -142 -11 -66 -3 -138 -10 -160 -16 -93 -26 -516 -37
-675 -18 -41 5 -139 21 -218 36 -125 23 -148 25 -179 14 -19 -7 -39 -9 -43 -5
-20 21 -63 150 -100 298 -47 187 -76 279 -102 321 -10 17 -18 33 -18 36 0 3
57 9 128 12 132 7 287 29 319 45 10 6 41 18 68 27 149 51 290 151 354 251 29
44 40 52 51 34 6 -9 14 -9 36 2 45 21 56 70 51 218 -4 108 -8 133 -31 183 -14
32 -26 59 -26 60 0 2 28 0 63 -4 136 -15 218 -18 337 -9 331 25 501 41 685 66
169 22 451 64 540 80 194 33 299 54 329 63 17 6 76 19 131 30 131 27 349 76
450 100 108 27 244 61 275 70 14 4 28 3 31 -2 4 -5 18 -9 33 -9z m-1492 -22
c40 -13 119 -32 175 -42 l102 -19 -87 -16 c-48 -9 -121 -21 -162 -28 -41 -7
-97 -17 -124 -22 -27 -5 -51 -7 -53 -5 -7 7 97 33 156 40 70 7 81 18 47 49
-26 24 -80 37 -157 37 -34 0 -42 -5 -65 -40 -17 -25 -31 -37 -36 -32 -13 13
61 90 92 95 14 2 28 5 32 6 4 0 40 -10 80 -23z m-2967 -1025 c120 -57 338
-128 439 -142 l89 -13 -6 -95 c-5 -90 -24 -188 -82 -426 -96 -386 -203 -725
-274 -860 -31 -59 -128 -158 -185 -187 -55 -29 -184 -32 -237 -5 -54 27 -143
114 -193 190 -59 89 -87 170 -146 428 -29 123 -9 456 36 600 12 39 18 46 34
42 11 -3 20 0 20 6 0 6 -7 11 -15 11 -8 0 -15 7 -15 15 0 40 95 300 150 413
12 24 36 77 55 118 l34 74 108 -66 c59 -36 144 -82 188 -103z m4845 -948 c-1
-16 -22 -120 -35 -165 -8 -29 -12 -47 -40 -168 -14 -63 -32 -124 -39 -135 -7
-11 -20 -52 -29 -90 -15 -67 -104 -337 -132 -400 -20 -46 -46 -134 -59 -195
-6 -30 -15 -55 -21 -55 -5 0 -16 20 -23 45 -8 25 -17 54 -22 65 -11 25 -29 86
-35 113 -2 11 -8 29 -13 39 -6 10 -10 21 -10 26 0 4 -12 58 -26 120 -28 125
-31 141 -52 277 -23 151 -33 240 -33 313 -1 56 2 69 17 73 9 3 26 10 37 14 11
5 83 23 160 41 77 17 152 38 166 45 15 7 37 15 50 18 13 3 47 11 74 19 67 19
65 19 65 0z"/>
<path d="M5560 8110 c-46 -13 -105 -49 -141 -87 -37 -39 -89 -133 -89 -163 0
-9 -4 -20 -9 -25 -12 -13 -18 -237 -7 -300 14 -87 70 -220 126 -300 41 -60 78
-96 132 -133 22 -15 52 -35 66 -44 43 -29 148 -42 217 -28 52 11 66 19 111 66
49 51 77 97 104 174 17 50 25 284 10 340 -6 25 -16 63 -21 85 -18 72 -96 218
-142 265 -68 69 -103 100 -113 100 -5 0 -22 7 -39 16 -77 41 -141 51 -205 34z
m151 -191 c51 -51 96 -203 100 -334 2 -83 -5 -137 -34 -267 -16 -78 -24 -98
-38 -98 -52 0 -121 167 -140 337 -11 102 -8 279 7 351 6 29 10 32 45 32 26 0
46 -7 60 -21z"/>
<path d="M3354 7510 c-57 -23 -135 -86 -158 -128 -51 -92 -60 -119 -64 -205
-4 -88 11 -201 30 -224 6 -7 8 -13 4 -13 -11 0 44 -102 89 -165 60 -85 139
-155 219 -195 63 -31 78 -35 150 -35 109 0 160 24 238 113 73 83 98 202 79
377 -10 96 -16 119 -54 193 -91 184 -232 285 -412 297 -55 4 -81 1 -121 -15z
m226 -157 c31 -16 55 -36 56 -45 1 -10 -2 -18 -8 -18 -6 0 -5 -6 2 -15 7 -8 9
-15 6 -15 -4 0 0 -7 8 -16 9 -8 13 -20 10 -26 -4 -6 0 -14 7 -19 8 -5 9 -9 3
-9 -7 0 -8 -17 -4 -50 3 -27 5 -55 4 -62 -1 -7 -7 -34 -12 -60 -10 -52 -6 -67
13 -41 11 15 15 15 29 4 32 -26 10 -147 -35 -195 -24 -25 -116 -34 -143 -13
-19 14 -19 15 0 40 14 18 19 35 16 61 -4 34 -7 37 -60 52 -62 18 -98 49 -107
91 -3 15 -11 45 -17 65 -13 43 -5 151 14 194 7 16 23 39 36 52 21 20 21 26 0
23 -4 0 -5 6 -2 14 11 27 121 20 184 -12z"/>
<path d="M10080 80 l0 -80 80 0 80 0 0 80 0 80 -80 0 -80 0 0 -80z"/>
</g>
</svg>
